<svg version="1.1" id="Layer_1" xmlns="http://www.w3.org/2000/svg" xmlns:xlink="http://www.w3.org/1999/xlink" x="0px" y="0px"
	 width="100%" viewBox="0 0 539 232" enable-background="new 0 0 539 232" xml:space="preserve">
<path fill="#EFEFEF" opacity="1.000000" stroke="none" 
	d="
M373.000000,233.000000 
	C248.666672,233.000000 124.833336,233.000000 1.000000,233.000000 
	C1.000000,155.666672 1.000000,78.333336 1.000000,1.000000 
	C180.666672,1.000000 360.333344,1.000000 540.000000,1.000000 
	C540.000000,78.333336 540.000000,155.666672 540.000000,233.000000 
	C484.500000,233.000000 429.000000,233.000000 373.000000,233.000000 
M53.778698,126.499969 
	C53.772648,138.822891 53.710014,151.146149 53.782307,163.468613 
	C53.823971,170.570282 57.419117,174.545975 64.442978,174.568909 
	C99.246590,174.682571 134.051010,174.669846 168.854660,174.556335 
	C176.034241,174.532928 179.847015,170.411377 179.856689,163.176941 
	C179.897202,132.869141 179.901276,102.561157 179.832764,72.253433 
	C179.814072,63.984905 176.188232,60.477962 167.818863,60.466530 
	C133.847382,60.420109 99.875793,60.401730 65.904335,60.443073 
	C57.081470,60.453812 53.841972,63.728664 53.809982,72.544464 
	C53.745934,90.196106 53.783165,107.848106 53.778698,126.499969 
M341.679169,94.909500 
	C341.208038,96.313042 340.736877,97.716591 340.265717,99.120132 
	C337.925598,94.231773 336.650055,89.463333 335.476837,84.669838 
	C333.936768,78.377487 333.621216,78.163643 326.839691,79.786835 
	C326.918976,80.891663 326.842804,82.067612 327.106506,83.161674 
	C329.950653,94.963135 332.898102,106.739914 335.690735,118.553375 
	C336.273499,121.018547 336.733765,122.782753 339.999207,122.757889 
	C343.321106,122.732597 343.675201,120.878220 344.157318,118.420494 
	C345.053070,113.854485 346.196167,109.336990 347.236237,104.799294 
	C347.799255,104.830452 348.362274,104.861610 348.925293,104.892769 
	C349.969910,109.481712 351.015259,114.070496 352.058807,118.659683 
	C352.544861,120.797195 352.875763,122.772705 355.984375,122.721062 
	C358.977783,122.671341 359.822998,121.340500 360.467621,118.656662 
	C363.107910,107.663902 366.043671,96.742218 368.853699,85.790009 
	C369.335297,83.912987 369.734314,82.014778 370.165985,80.149933 
	C363.233032,78.266869 362.399292,78.764641 360.991760,84.798836 
	C359.677765,90.431786 358.260529,96.040665 356.888763,101.660149 
	C354.719849,95.315002 353.676880,89.106506 352.780853,82.876877 
	C352.367035,79.999855 350.910492,79.085793 348.054962,79.130913 
	C345.350616,79.173637 344.185455,80.067520 343.857452,82.779900 
	C343.399078,86.570999 342.551056,90.314995 341.679169,94.909500 
M279.558746,84.777649 
	C279.470703,83.026917 279.382660,81.276192 279.290527,79.444092 
	C276.591309,79.444092 274.510376,79.444092 271.800690,79.444092 
	C271.800690,87.032219 271.800690,94.293518 271.800690,101.554817 
	C268.261444,95.201530 265.474731,88.821770 263.097778,82.292824 
	C261.947845,79.134331 259.663483,78.542892 257.281464,79.433739 
	C256.043396,79.896759 254.811722,82.237488 254.779831,83.755280 
	C254.604919,92.078140 254.814758,100.408737 254.867142,108.736839 
	C254.895142,113.187164 254.872101,117.637802 254.872101,122.297363 
	C257.451813,122.297363 259.673950,122.297363 262.228302,122.297363 
	C262.228302,114.422585 262.228302,106.894028 262.228302,99.365471 
	C265.750519,105.680321 268.643463,112.124008 271.212402,118.694366 
	C272.886017,122.974800 275.542328,123.525513 279.558044,121.780861 
	C279.558044,109.674034 279.558044,97.693146 279.558746,84.777649 
M240.450043,122.175552 
	C247.040985,120.501808 248.668152,115.453705 248.782120,109.578804 
	C248.946960,101.082062 248.813812,92.579109 249.014404,84.083687 
	C249.087097,81.004349 248.921021,78.977776 244.913437,79.137833 
	C240.646103,79.308266 241.386932,81.797539 241.382584,84.594566 
	C241.369431,93.077225 241.321533,101.579308 240.665894,110.025597 
	C240.529404,111.783890 237.724243,113.335030 236.148956,114.981636 
	C234.736923,113.227287 232.527557,111.649513 232.091217,109.679100 
	C231.352631,106.343750 231.679047,102.760628 231.657227,99.281044 
	C231.615982,92.701042 231.645309,86.120605 231.645309,79.187813 
	C228.497986,79.966225 223.959869,76.893234 223.926392,82.882477 
	C223.874222,92.211418 223.782623,101.560242 224.309372,110.866592 
	C224.825562,119.986092 230.374969,123.857780 240.450043,122.175552 
M416.785767,116.575783 
	C410.588867,104.229019 404.391968,91.882256 397.806000,78.760223 
	C390.191345,94.045433 383.100159,108.279922 375.829620,122.874390 
	C390.667542,122.874390 404.933075,122.874390 419.765350,122.874390 
	C418.761108,120.771729 417.921753,119.014336 416.785767,116.575783 
M432.955170,114.540634 
	C432.955170,112.262489 432.955170,109.984352 432.955170,107.824043 
	C445.448181,105.295273 449.305786,99.898216 446.947144,88.891571 
	C445.092621,80.237442 437.429749,76.816994 426.320068,79.698059 
	C426.320068,94.069733 426.320068,108.443672 426.320068,122.680542 
	C428.637451,122.680542 430.554840,122.680542 432.954468,122.680542 
	C432.954468,120.067619 432.954468,117.778221 432.955170,114.540634 
M304.166748,81.518372 
	C298.315521,87.802986 298.152649,93.215416 303.853302,99.395241 
	C306.208405,101.948288 309.404846,103.869202 311.238861,106.710121 
	C312.538910,108.723877 313.205078,112.300964 312.245026,114.230133 
	C311.559235,115.608185 307.716919,115.703407 305.261932,115.793335 
	C304.005402,115.839363 302.702393,114.617126 299.694733,113.094460 
	C300.244629,116.808525 299.733856,120.230408 301.115875,121.383316 
	C305.002502,124.625603 314.223114,123.145943 317.829742,119.476311 
	C321.565186,115.675583 321.935150,108.770111 318.177643,103.847954 
	C315.989594,100.981697 313.151733,98.588562 310.475891,96.124130 
	C307.875610,93.729294 305.388428,90.812302 307.801422,87.662872 
	C308.859283,86.282135 312.673096,87.023346 315.232239,86.768463 
	C315.535065,86.738297 315.817383,86.501694 316.461060,86.190895 
	C316.995850,84.611664 317.613098,82.788979 318.267578,80.856308 
	C313.402832,78.162498 309.062775,78.363083 304.166748,81.518372 
M285.368103,111.459671 
	C285.368103,115.056107 285.368103,118.652542 285.368103,122.128998 
	C293.417297,123.283699 293.663055,123.121140 293.624939,116.252800 
	C293.567780,105.949150 293.475952,95.645454 293.340729,85.342545 
	C293.248260,78.293098 292.966705,78.112633 285.373230,79.781334 
	C285.373230,89.928581 285.373230,100.200378 285.368103,111.459671 
M207.333054,135.433289 
	C206.279022,136.455063 204.386185,137.421646 204.314713,138.508072 
	C203.988007,143.473694 204.284332,148.476273 204.135590,153.458954 
	C204.025452,157.148605 205.587265,157.684189 209.010529,156.333145 
	C209.010529,153.519775 209.010529,150.772125 209.010529,147.970840 
	C211.388657,147.970840 213.307861,147.970840 215.444901,147.970840 
	C215.592804,151.013016 215.727753,153.788666 215.883896,157.000397 
	C217.386261,156.877090 218.714737,156.768066 219.909286,156.670029 
	C219.909286,149.367752 219.909286,142.603363 219.909286,135.559204 
	C218.690201,135.559204 216.963074,135.331375 216.884781,135.594406 
	C216.088898,138.267807 215.561813,141.021225 214.972946,143.691040 
	C212.961517,143.691040 211.047562,143.691040 209.294586,143.691040 
	C208.869537,140.810715 208.491943,138.252090 207.333054,135.433289 
M283.268768,156.963623 
	C283.851929,153.301895 284.435120,149.640182 285.037750,145.856293 
	C289.638916,148.717667 289.013916,156.323059 295.851807,157.077377 
	C295.851807,149.573395 295.851807,142.638000 295.851807,134.570908 
	C289.675812,137.723343 294.175903,143.584412 291.563904,146.809769 
	C287.506653,143.605637 287.589508,136.393738 280.356018,135.271851 
	C280.356018,142.288605 280.287506,148.584229 280.447083,154.874069 
	C280.465942,155.618423 281.733887,156.331100 283.268768,156.963623 
M416.178314,154.926010 
	C417.133331,155.752716 418.088318,156.579437 419.043304,157.406143 
	C419.432922,157.143753 419.822510,156.881363 420.212097,156.618973 
	C420.212097,153.050919 420.212097,149.482880 420.212097,145.380096 
	C425.385559,148.455338 424.690002,156.508453 431.806702,157.073944 
	C431.806702,149.669144 431.806702,142.734207 431.806702,135.789246 
	C429.528046,135.903778 429.528046,135.903778 427.460663,147.616608 
	C425.177765,143.991135 423.313721,140.760086 421.150391,137.743637 
	C420.404419,136.703461 418.912933,136.197937 417.761963,135.448181 
	C417.229431,136.648468 416.279510,137.834320 416.237427,139.051590 
	C416.064941,144.039536 416.169159,149.037079 416.178314,154.926010 
M396.933197,144.816406 
	C394.852631,136.142731 389.293762,133.264587 380.182617,136.145615 
	C380.182617,143.000961 380.182617,149.856308 380.182617,156.661530 
	C392.575531,158.184341 396.381378,155.627670 396.933197,144.816406 
M359.602112,145.319183 
	C359.689301,146.978073 359.717896,148.642532 359.874969,150.294785 
	C360.308807,154.858459 362.844055,157.084183 367.439606,157.121765 
	C372.550964,157.163574 374.981201,155.422134 375.551178,150.390610 
	C375.979462,146.609879 375.682617,142.752457 375.856140,138.935867 
	C376.030609,135.097382 374.281403,134.783981 371.132812,136.143402 
	C371.132812,140.410660 371.444733,144.593353 370.978485,148.687439 
	C370.793396,150.312866 368.882599,151.741745 367.757507,153.260132 
	C366.588287,151.771667 364.589294,150.375946 364.410553,148.776764 
	C363.936798,144.537872 364.249847,140.211044 364.249847,135.952438 
	C360.920807,134.914902 359.293488,135.471710 359.591156,138.929092 
	C359.747467,140.744995 359.611145,142.586121 359.602112,145.319183 
M300.373291,141.986740 
	C300.470825,145.088165 299.955994,148.369720 300.803284,151.250641 
	C302.228363,156.096115 307.689178,158.367584 313.649536,156.933914 
	C318.717194,155.714966 315.694916,151.482040 316.216339,148.651581 
	C316.823151,145.357880 314.739044,145.230118 312.138275,146.087051 
	C312.015320,148.457184 311.897034,150.737213 311.779602,153.000443 
	C306.446472,153.115280 304.695618,151.496613 304.566986,146.523224 
	C304.438110,141.540543 306.455750,139.366302 311.091370,139.004807 
	C312.397675,138.902939 313.634186,137.906296 314.902710,137.320053 
	C313.626892,136.615601 312.398743,135.424606 311.066711,135.294174 
	C306.290802,134.826492 302.654572,136.716721 300.373291,141.986740 
M262.278748,150.042770 
	C267.683533,148.533142 269.776428,145.569809 268.785950,140.829208 
	C267.755188,135.895798 263.325439,134.243408 254.919342,135.828812 
	C254.919342,142.661163 254.919342,149.558487 254.919342,156.904053 
	C256.311584,156.817749 257.647369,156.734955 257.645996,156.735046 
	C259.290436,153.882202 260.361542,152.024063 262.278748,150.042770 
M407.425629,147.722504 
	C410.173920,147.908188 412.061310,147.395584 410.642548,144.034058 
	C408.807739,143.900620 407.190857,143.783035 405.334991,143.648056 
	C405.334991,142.370346 405.083862,140.414642 405.374573,140.330460 
	C407.786865,139.632019 410.299286,139.279358 412.769348,138.824371 
	C412.289276,134.990219 409.111511,134.288177 400.628510,136.049088 
	C400.628510,142.881851 400.628510,149.750961 400.628510,157.019165 
	C404.071014,157.019165 407.206573,157.166275 410.313446,156.932220 
	C411.283752,156.859131 412.176544,155.757080 413.104828,155.126038 
	C412.234436,154.438705 411.442993,153.340744 410.476135,153.154770 
	C408.784332,152.829361 406.984772,153.064026 404.011566,153.064026 
	C405.185883,150.604767 405.863586,149.185532 407.425629,147.722504 
M235.041641,157.001572 
	C235.663315,156.235870 236.284988,155.470169 236.906677,154.704483 
	C236.217194,154.165115 235.571915,153.247009 234.829605,153.160416 
	C232.927948,152.938538 230.983170,153.086365 228.825226,153.086365 
	C228.937988,150.942413 229.013824,149.500748 229.078537,148.270126 
	C231.120941,146.823013 235.583008,149.418671 234.874481,144.086899 
	C232.918564,143.957947 231.150101,143.841339 229.152069,143.709610 
	C229.152069,142.244385 229.152069,141.000870 229.152069,139.361771 
	C230.841599,139.361771 232.359222,139.591568 233.760376,139.286469 
	C234.812973,139.057236 235.715942,138.140945 236.685532,137.530533 
	C235.810303,136.805298 234.981613,135.533981 234.051331,135.454681 
	C230.954514,135.190781 227.821228,135.354828 224.458832,135.354828 
	C224.458832,142.825943 224.458832,149.701157 224.458832,157.013000 
	C227.889938,157.013000 231.015015,157.013000 235.041641,157.001572 
M462.405212,156.317230 
	C467.947357,151.903107 467.493958,147.011429 461.283295,144.232010 
	C460.379456,143.827515 459.334320,143.599365 458.602386,142.991302 
	C457.932526,142.434799 457.016235,141.115067 457.232880,140.764221 
	C457.738617,139.945160 458.793274,139.204514 459.749512,138.993408 
	C460.825104,138.755951 462.053253,139.297440 463.182861,139.182816 
	C463.824432,139.117722 464.747589,138.521820 464.912323,137.974747 
	C465.083649,137.405853 464.512085,136.010406 464.234497,136.002029 
	C461.330536,135.914474 458.222961,135.444611 455.590027,136.327667 
	C454.139252,136.814255 452.362457,139.958481 452.731079,141.389877 
	C453.284637,143.539368 455.563416,145.262527 457.164886,147.118408 
	C458.422760,148.576080 459.765778,149.960266 461.070984,151.377121 
	C459.202179,151.976135 457.338959,152.593903 455.458557,153.153976 
	C455.175629,153.238266 454.711304,152.891586 454.504181,153.021210 
	C453.664825,153.546539 452.893097,154.180008 452.096436,154.773590 
	C452.812958,155.485443 453.486420,156.747452 454.253937,156.807465 
	C456.697815,156.998611 459.176666,156.742538 462.405212,156.317230 
M332.269592,157.101151 
	C336.161133,157.025314 339.180420,155.656204 339.887756,151.431412 
	C340.621948,147.045746 337.861572,145.112717 334.226593,143.906647 
	C333.600311,143.698837 332.864990,143.503479 332.448639,143.053711 
	C331.833130,142.388763 330.880920,141.196777 331.104156,140.773285 
	C331.535645,139.954803 332.620117,139.207062 333.559021,139.001495 
	C334.639038,138.765045 335.869568,139.306610 337.005310,139.199234 
	C337.648651,139.138412 338.772125,138.396545 338.736542,138.061768 
	C338.650940,137.257446 338.204895,136.162750 337.559387,135.801346 
	C333.981689,133.798401 328.165314,135.536407 326.742859,139.033585 
	C324.894409,143.578079 327.367493,145.882050 331.320099,147.302948 
	C331.787842,147.471069 332.368866,147.610992 332.648285,147.962173 
	C333.484711,149.013367 334.197449,150.162933 334.958466,151.274094 
	C333.756195,151.953140 332.618164,152.838821 331.329376,153.239334 
	C330.455109,153.511002 329.313629,152.857269 328.393738,153.066360 
	C327.501984,153.269058 326.740631,154.045364 325.921997,154.569733 
	C326.583923,155.349197 327.103210,156.461899 327.944641,156.822052 
	C328.950500,157.252594 330.231812,157.039597 332.269592,157.101151 
M444.847382,149.413773 
	C444.847382,146.280548 444.847382,143.147324 444.847382,139.942734 
	C445.810760,139.700348 446.502594,139.666016 447.041504,139.361252 
	C448.122345,138.750000 449.119598,137.990982 450.151367,137.292984 
	C449.041443,136.657318 447.969177,135.569260 446.814301,135.473053 
	C443.681030,135.212051 440.499847,135.211151 437.366119,135.462341 
	C436.428589,135.537506 435.584900,136.783112 434.698212,137.492493 
	C435.492004,138.119888 436.207977,138.918686 437.102295,139.324600 
	C437.932709,139.701508 438.953400,139.659149 440.331177,139.868301 
	C440.331177,145.618744 440.331177,151.190521 440.331177,156.762878 
	C447.203918,157.813660 444.032013,152.828400 444.847382,149.413773 
M351.712341,146.491058 
	C351.712341,144.234665 351.712341,141.978287 351.712341,139.709000 
	C353.854095,139.445938 355.291595,139.269379 356.701721,139.096176 
	C356.653076,135.000732 352.632629,134.174774 342.115448,135.874420 
	C340.338257,140.947525 345.168030,138.557938 347.139404,140.239868 
	C347.139404,145.490158 347.139404,151.086594 347.139404,156.587982 
	C350.565918,157.646393 351.990021,156.744583 351.739288,153.458115 
	C351.587708,151.470886 351.709869,149.462784 351.712341,146.491058 
M250.085983,156.976257 
	C250.718399,156.227280 251.350800,155.478302 251.983215,154.729324 
	C251.295486,154.182800 250.657532,153.264450 249.910065,153.164413 
	C248.163208,152.930649 246.363785,153.089752 244.368011,153.089752 
	C244.368011,147.643539 244.477448,142.823593 244.271393,138.017151 
	C244.232361,137.106400 242.941498,136.249313 242.228241,135.367462 
	C241.494278,136.060547 240.141373,136.737686 240.123032,137.449219 
	C239.957687,143.863770 240.026337,150.284348 240.026337,157.005936 
	C243.561142,157.005936 246.370331,157.005936 250.085983,156.976257 
M271.990662,139.853500 
	C271.990662,145.468506 271.990662,151.083527 271.990662,156.698532 
	C272.422180,156.981964 272.853668,157.265396 273.285187,157.548813 
	C274.277039,156.480225 276.075348,155.448837 276.126617,154.336868 
	C276.407837,148.241058 276.260712,142.125488 276.260712,136.079239 
	C272.831360,134.659119 271.646454,135.790558 271.990662,139.853500 
z"/>
<path fill="#04D07F" opacity="1.000000" stroke="none" 
	d="
M53.778641,125.999969 
	C53.783165,107.848106 53.745934,90.196106 53.809982,72.544464 
	C53.841972,63.728664 57.081470,60.453812 65.904335,60.443073 
	C99.875793,60.401730 133.847382,60.420109 167.818863,60.466530 
	C176.188232,60.477962 179.814072,63.984905 179.832764,72.253433 
	C179.901276,102.561157 179.897202,132.869141 179.856689,163.176941 
	C179.847015,170.411377 176.034241,174.532928 168.854660,174.556335 
	C134.051010,174.669846 99.246590,174.682571 64.442978,174.568909 
	C57.419117,174.545975 53.823971,170.570282 53.782307,163.468613 
	C53.710014,151.146149 53.772648,138.822891 53.778641,125.999969 
M89.343964,126.111221 
	C89.817078,129.278641 90.290184,132.446060 90.595070,136.317154 
	C93.887085,146.619614 97.442818,147.776047 107.910103,142.094727 
	C108.977539,142.828873 109.970734,143.511948 110.979958,144.776520 
	C112.337135,145.844101 113.694321,146.911682 115.673180,148.361984 
	C117.849770,149.076111 119.982880,149.994980 122.210655,150.468079 
	C130.790665,152.290131 134.736542,149.048294 135.199692,139.747101 
	C138.376144,137.474762 143.539993,137.474258 144.731232,132.088379 
	C148.859421,130.728043 152.839905,125.889374 152.735733,121.869583 
	C152.599136,116.598724 148.722198,114.693932 145.708420,113.956062 
	C145.165283,107.428268 145.395081,101.459160 144.028122,95.881378 
	C142.146637,88.204185 137.147415,86.490456 129.281906,89.984856 
	C127.415009,89.103111 125.561485,88.191505 123.677429,87.348106 
	C121.825035,86.518875 119.941643,85.758881 117.260483,84.913719 
	C116.300293,84.764969 115.255371,84.811386 114.393150,84.436996 
	C106.557327,81.034569 101.385422,83.803680 99.728165,92.064201 
	C99.482025,92.195404 99.235878,92.326599 98.989738,92.457794 
	C99.471626,92.585793 99.953506,92.713799 100.676651,93.342949 
	C100.680832,93.528305 100.685013,93.713654 99.907593,94.100929 
	C95.667862,96.617889 90.177017,97.403847 87.372772,103.114044 
	C80.508415,110.732986 81.027481,115.949104 89.078773,120.834999 
	C89.172325,122.325600 89.265869,123.816200 89.343964,126.111221 
z"/>
<path fill="#1B1B1B" opacity="1.000000" stroke="none" 
	d="
M341.774445,94.494324 
	C342.551056,90.314995 343.399078,86.570999 343.857452,82.779900 
	C344.185455,80.067520 345.350616,79.173637 348.054962,79.130913 
	C350.910492,79.085793 352.367035,79.999855 352.780853,82.876877 
	C353.676880,89.106506 354.719849,95.315002 356.888763,101.660149 
	C358.260529,96.040665 359.677765,90.431786 360.991760,84.798836 
	C362.399292,78.764641 363.233032,78.266869 370.165985,80.149933 
	C369.734314,82.014778 369.335297,83.912987 368.853699,85.790009 
	C366.043671,96.742218 363.107910,107.663902 360.467621,118.656662 
	C359.822998,121.340500 358.977783,122.671341 355.984375,122.721062 
	C352.875763,122.772705 352.544861,120.797195 352.058807,118.659683 
	C351.015259,114.070496 349.969910,109.481712 348.925293,104.892769 
	C348.362274,104.861610 347.799255,104.830452 347.236237,104.799294 
	C346.196167,109.336990 345.053070,113.854485 344.157318,118.420494 
	C343.675201,120.878220 343.321106,122.732597 339.999207,122.757889 
	C336.733765,122.782753 336.273499,121.018547 335.690735,118.553375 
	C332.898102,106.739914 329.950653,94.963135 327.106506,83.161674 
	C326.842804,82.067612 326.918976,80.891663 326.839691,79.786835 
	C333.621216,78.163643 333.936768,78.377487 335.476837,84.669838 
	C336.650055,89.463333 337.925598,94.231773 340.265717,99.120132 
	C340.736877,97.716591 341.208038,96.313042 341.774445,94.494324 
z"/>
<path fill="#1C1C1C" opacity="1.000000" stroke="none" 
	d="
M279.558411,85.244957 
	C279.558044,97.693146 279.558044,109.674034 279.558044,121.780861 
	C275.542328,123.525513 272.886017,122.974800 271.212402,118.694366 
	C268.643463,112.124008 265.750519,105.680321 262.228302,99.365471 
	C262.228302,106.894028 262.228302,114.422585 262.228302,122.297363 
	C259.673950,122.297363 257.451813,122.297363 254.872101,122.297363 
	C254.872101,117.637802 254.895142,113.187164 254.867142,108.736839 
	C254.814758,100.408737 254.604919,92.078140 254.779831,83.755280 
	C254.811722,82.237488 256.043396,79.896759 257.281464,79.433739 
	C259.663483,78.542892 261.947845,79.134331 263.097778,82.292824 
	C265.474731,88.821770 268.261444,95.201530 271.800690,101.554817 
	C271.800690,94.293518 271.800690,87.032219 271.800690,79.444092 
	C274.510376,79.444092 276.591309,79.444092 279.290527,79.444092 
	C279.382660,81.276192 279.470703,83.026917 279.558411,85.244957 
z"/>
<path fill="#1D1D1D" opacity="1.000000" stroke="none" 
	d="
M240.067596,122.288239 
	C230.374969,123.857780 224.825562,119.986092 224.309372,110.866592 
	C223.782623,101.560242 223.874222,92.211418 223.926392,82.882477 
	C223.959869,76.893234 228.497986,79.966225 231.645309,79.187813 
	C231.645309,86.120605 231.615982,92.701042 231.657227,99.281044 
	C231.679047,102.760628 231.352631,106.343750 232.091217,109.679100 
	C232.527557,111.649513 234.736923,113.227287 236.148956,114.981636 
	C237.724243,113.335030 240.529404,111.783890 240.665894,110.025597 
	C241.321533,101.579308 241.369431,93.077225 241.382584,84.594566 
	C241.386932,81.797539 240.646103,79.308266 244.913437,79.137833 
	C248.921021,78.977776 249.087097,81.004349 249.014404,84.083687 
	C248.813812,92.579109 248.946960,101.082062 248.782120,109.578804 
	C248.668152,115.453705 247.040985,120.501808 240.067596,122.288239 
z"/>
<path fill="#242424" opacity="1.000000" stroke="none" 
	d="
M416.934082,116.916367 
	C417.921753,119.014336 418.761108,120.771729 419.765350,122.874390 
	C404.933075,122.874390 390.667542,122.874390 375.829620,122.874390 
	C383.100159,108.279922 390.191345,94.045433 397.806000,78.760223 
	C404.391968,91.882256 410.588867,104.229019 416.934082,116.916367 
M395.485046,108.610802 
	C395.081024,109.587219 394.676971,110.563629 394.204193,111.706161 
	C399.571289,111.706161 404.491821,111.706161 410.142242,111.706161 
	C405.995209,103.471611 402.092712,95.722572 397.814056,87.226662 
	C392.270020,98.296120 387.170959,108.477127 381.948181,118.905167 
	C392.746643,118.905167 402.936646,118.905167 413.126617,118.905167 
	C413.179688,118.370399 413.232758,117.835632 413.285828,117.300865 
	C405.474182,113.507164 396.653015,117.247505 388.023682,115.146652 
	C391.193634,108.733490 394.294952,102.459213 397.798492,95.371170 
	C400.125519,99.973938 402.031738,103.744385 404.311432,108.253586 
	C401.151031,108.253586 398.697754,108.253586 395.485046,108.610802 
z"/>
<path fill="#191919" opacity="1.000000" stroke="none" 
	d="
M432.954834,115.014725 
	C432.954468,117.778221 432.954468,120.067619 432.954468,122.680542 
	C430.554840,122.680542 428.637451,122.680542 426.320068,122.680542 
	C426.320068,108.443672 426.320068,94.069733 426.320068,79.698059 
	C437.429749,76.816994 445.092621,80.237442 446.947144,88.891571 
	C449.305786,99.898216 445.448181,105.295273 432.955170,107.824043 
	C432.955170,109.984352 432.955170,112.262489 432.954834,115.014725 
M432.946564,93.492737 
	C432.946564,95.961563 432.946564,98.430389 432.946564,100.906776 
	C438.138062,100.750893 440.051025,98.642570 440.064667,93.428917 
	C440.078064,88.326828 437.985779,86.080040 432.946930,86.123360 
	C432.946930,88.253151 432.946930,90.394272 432.946564,93.492737 
z"/>
<path fill="#1E1E1E" opacity="1.000000" stroke="none" 
	d="
M304.466858,81.285385 
	C309.062775,78.363083 313.402832,78.162498 318.267578,80.856308 
	C317.613098,82.788979 316.995850,84.611664 316.461060,86.190895 
	C315.817383,86.501694 315.535065,86.738297 315.232239,86.768463 
	C312.673096,87.023346 308.859283,86.282135 307.801422,87.662872 
	C305.388428,90.812302 307.875610,93.729294 310.475891,96.124130 
	C313.151733,98.588562 315.989594,100.981697 318.177643,103.847954 
	C321.935150,108.770111 321.565186,115.675583 317.829742,119.476311 
	C314.223114,123.145943 305.002502,124.625603 301.115875,121.383316 
	C299.733856,120.230408 300.244629,116.808525 299.694733,113.094460 
	C302.702393,114.617126 304.005402,115.839363 305.261932,115.793335 
	C307.716919,115.703407 311.559235,115.608185 312.245026,114.230133 
	C313.205078,112.300964 312.538910,108.723877 311.238861,106.710121 
	C309.404846,103.869202 306.208405,101.948288 303.853302,99.395241 
	C298.152649,93.215416 298.315521,87.802986 304.466858,81.285385 
z"/>
<path fill="#242424" opacity="1.000000" stroke="none" 
	d="
M285.370667,110.965927 
	C285.373230,100.200378 285.373230,89.928581 285.373230,79.781334 
	C292.966705,78.112633 293.248260,78.293098 293.340729,85.342545 
	C293.475952,95.645454 293.567780,105.949150 293.624939,116.252800 
	C293.663055,123.121140 293.417297,123.283699 285.368103,122.128998 
	C285.368103,118.652542 285.368103,115.056107 285.370667,110.965927 
z"/>
<path fill="#292929" opacity="1.000000" stroke="none" 
	d="
M207.723709,135.563370 
	C208.491943,138.252090 208.869537,140.810715 209.294586,143.691040 
	C211.047562,143.691040 212.961517,143.691040 214.972946,143.691040 
	C215.561813,141.021225 216.088898,138.267807 216.884781,135.594406 
	C216.963074,135.331375 218.690201,135.559204 219.909286,135.559204 
	C219.909286,142.603363 219.909286,149.367752 219.909286,156.670029 
	C218.714737,156.768066 217.386261,156.877090 215.883896,157.000397 
	C215.727753,153.788666 215.592804,151.013016 215.444901,147.970840 
	C213.307861,147.970840 211.388657,147.970840 209.010529,147.970840 
	C209.010529,150.772125 209.010529,153.519775 209.010529,156.333145 
	C205.587265,157.684189 204.025452,157.148605 204.135590,153.458954 
	C204.284332,148.476273 203.988007,143.473694 204.314713,138.508072 
	C204.386185,137.421646 206.279022,136.455063 207.723709,135.563370 
z"/>
<path fill="#2A2A2A" opacity="1.000000" stroke="none" 
	d="
M282.845795,157.011047 
	C281.733887,156.331100 280.465942,155.618423 280.447083,154.874069 
	C280.287506,148.584229 280.356018,142.288605 280.356018,135.271851 
	C287.589508,136.393738 287.506653,143.605637 291.563904,146.809769 
	C294.175903,143.584412 289.675812,137.723343 295.851807,134.570908 
	C295.851807,142.638000 295.851807,149.573395 295.851807,157.077377 
	C289.013916,156.323059 289.638916,148.717667 285.037750,145.856293 
	C284.435120,149.640182 283.851929,153.301895 282.845795,157.011047 
z"/>
<path fill="#262626" opacity="1.000000" stroke="none" 
	d="
M416.174927,154.478546 
	C416.169159,149.037079 416.064941,144.039536 416.237427,139.051590 
	C416.279510,137.834320 417.229431,136.648468 417.761963,135.448181 
	C418.912933,136.197937 420.404419,136.703461 421.150391,137.743637 
	C423.313721,140.760086 425.177765,143.991135 427.460663,147.616608 
	C429.528046,135.903778 429.528046,135.903778 431.806702,135.789246 
	C431.806702,142.734207 431.806702,149.669144 431.806702,157.073944 
	C424.690002,156.508453 425.385559,148.455338 420.212097,145.380096 
	C420.212097,149.482880 420.212097,153.050919 420.212097,156.618973 
	C419.822510,156.881363 419.432922,157.143753 419.043304,157.406143 
	C418.088318,156.579437 417.133331,155.752716 416.174927,154.478546 
z"/>
<path fill="#222222" opacity="1.000000" stroke="none" 
	d="
M396.955933,145.233139 
	C396.381378,155.627670 392.575531,158.184341 380.182617,156.661530 
	C380.182617,149.856308 380.182617,143.000961 380.179443,136.142975 
	C389.293762,133.264587 394.852631,136.142731 396.955933,145.233139 
M384.280060,151.630829 
	C385.187164,152.240173 386.123657,153.408585 386.996307,153.362717 
	C390.915161,153.156754 392.778259,149.964920 392.178131,144.869843 
	C391.654236,140.421814 389.259247,138.484528 384.264252,139.423218 
	C384.264252,143.241623 384.264252,147.012543 384.280060,151.630829 
z"/>
<path fill="#292929" opacity="1.000000" stroke="none" 
	d="
M359.604553,144.867523 
	C359.611145,142.586121 359.747467,140.744995 359.591156,138.929092 
	C359.293488,135.471710 360.920807,134.914902 364.249847,135.952438 
	C364.249847,140.211044 363.936798,144.537872 364.410553,148.776764 
	C364.589294,150.375946 366.588287,151.771667 367.757507,153.260132 
	C368.882599,151.741745 370.793396,150.312866 370.978485,148.687439 
	C371.444733,144.593353 371.132812,140.410660 371.132812,136.143402 
	C374.281403,134.783981 376.030609,135.097382 375.856140,138.935867 
	C375.682617,142.752457 375.979462,146.609879 375.551178,150.390610 
	C374.981201,155.422134 372.550964,157.163574 367.439606,157.121765 
	C362.844055,157.084183 360.308807,154.858459 359.874969,150.294785 
	C359.717896,148.642532 359.689301,146.978073 359.604553,144.867523 
z"/>
<path fill="#232323" opacity="1.000000" stroke="none" 
	d="
M300.535339,141.646210 
	C302.654572,136.716721 306.290802,134.826492 311.066711,135.294174 
	C312.398743,135.424606 313.626892,136.615601 314.902710,137.320053 
	C313.634186,137.906296 312.397675,138.902939 311.091370,139.004807 
	C306.455750,139.366302 304.438110,141.540543 304.566986,146.523224 
	C304.695618,151.496613 306.446472,153.115280 311.779602,153.000443 
	C311.897034,150.737213 312.015320,148.457184 312.138275,146.087051 
	C314.739044,145.230118 316.823151,145.357880 316.216339,148.651581 
	C315.694916,151.482040 318.717194,155.714966 313.649536,156.933914 
	C307.689178,158.367584 302.228363,156.096115 300.803284,151.250641 
	C299.955994,148.369720 300.470825,145.088165 300.535339,141.646210 
z"/>
<path fill="#242424" opacity="1.000000" stroke="none" 
	d="
M261.855682,150.104340 
	C260.361542,152.024063 259.290436,153.882202 257.645996,156.735046 
	C257.647369,156.734955 256.311584,156.817749 254.919342,156.904053 
	C254.919342,149.558487 254.919342,142.661163 254.919342,135.828812 
	C263.325439,134.243408 267.755188,135.895798 268.785950,140.829208 
	C269.776428,145.569809 267.683533,148.533142 261.855682,150.104340 
M259.613068,146.003708 
	C262.863464,146.910126 264.611053,145.290207 264.116913,142.335831 
	C263.869965,140.859161 261.705109,139.703247 260.407745,138.402252 
	C259.996338,138.746246 259.584961,139.090240 259.173553,139.434235 
	C259.173553,141.365692 259.173553,143.297150 259.613068,146.003708 
z"/>
<path fill="#2E2E2E" opacity="1.000000" stroke="none" 
	d="
M406.983459,147.744385 
	C405.863586,149.185532 405.185883,150.604767 404.011566,153.064026 
	C406.984772,153.064026 408.784332,152.829361 410.476135,153.154770 
	C411.442993,153.340744 412.234436,154.438705 413.104828,155.126038 
	C412.176544,155.757080 411.283752,156.859131 410.313446,156.932220 
	C407.206573,157.166275 404.071014,157.019165 400.628510,157.019165 
	C400.628510,149.750961 400.628510,142.881851 400.628510,136.049088 
	C409.111511,134.288177 412.289276,134.990219 412.769348,138.824371 
	C410.299286,139.279358 407.786865,139.632019 405.374573,140.330460 
	C405.083862,140.414642 405.334991,142.370346 405.334991,143.648056 
	C407.190857,143.783035 408.807739,143.900620 410.642548,144.034058 
	C412.061310,147.395584 410.173920,147.908188 406.983459,147.744385 
z"/>
<path fill="#2E2E2E" opacity="1.000000" stroke="none" 
	d="
M234.590866,157.007294 
	C231.015015,157.013000 227.889938,157.013000 224.458832,157.013000 
	C224.458832,149.701157 224.458832,142.825943 224.458832,135.354828 
	C227.821228,135.354828 230.954514,135.190781 234.051331,135.454681 
	C234.981613,135.533981 235.810303,136.805298 236.685532,137.530533 
	C235.715942,138.140945 234.812973,139.057236 233.760376,139.286469 
	C232.359222,139.591568 230.841599,139.361771 229.152069,139.361771 
	C229.152069,141.000870 229.152069,142.244385 229.152069,143.709610 
	C231.150101,143.841339 232.918564,143.957947 234.874481,144.086899 
	C235.583008,149.418671 231.120941,146.823013 229.078537,148.270126 
	C229.013824,149.500748 228.937988,150.942413 228.825226,153.086365 
	C230.983170,153.086365 232.927948,152.938538 234.829605,153.160416 
	C235.571915,153.247009 236.217194,154.165115 236.906677,154.704483 
	C236.284988,155.470169 235.663315,156.235870 234.590866,157.007294 
z"/>
<path fill="#252525" opacity="1.000000" stroke="none" 
	d="
M462.023621,156.488235 
	C459.176666,156.742538 456.697815,156.998611 454.253937,156.807465 
	C453.486420,156.747452 452.812958,155.485443 452.096436,154.773590 
	C452.893097,154.180008 453.664825,153.546539 454.504181,153.021210 
	C454.711304,152.891586 455.175629,153.238266 455.458557,153.153976 
	C457.338959,152.593903 459.202179,151.976135 461.070984,151.377106 
	C459.765778,149.960266 458.422760,148.576080 457.164886,147.118408 
	C455.563416,145.262527 453.284637,143.539368 452.731079,141.389877 
	C452.362457,139.958481 454.139252,136.814255 455.590027,136.327667 
	C458.222961,135.444611 461.330536,135.914474 464.234497,136.002029 
	C464.512085,136.010406 465.083649,137.405853 464.912323,137.974747 
	C464.747589,138.521820 463.824432,139.117722 463.182861,139.182816 
	C462.053253,139.297440 460.825104,138.755951 459.749512,138.993408 
	C458.793274,139.204514 457.738617,139.945160 457.232880,140.764221 
	C457.016235,141.115067 457.932526,142.434799 458.602386,142.991302 
	C459.334320,143.599365 460.379456,143.827515 461.283295,144.232010 
	C467.493958,147.011429 467.947357,151.903107 462.023621,156.488235 
z"/>
<path fill="#272727" opacity="1.000000" stroke="none" 
	d="
M331.831726,157.103241 
	C330.231812,157.039597 328.950500,157.252594 327.944641,156.822052 
	C327.103210,156.461899 326.583923,155.349197 325.921997,154.569733 
	C326.740631,154.045364 327.501984,153.269058 328.393738,153.066360 
	C329.313629,152.857269 330.455109,153.511002 331.329376,153.239334 
	C332.618164,152.838821 333.756195,151.953140 334.958466,151.274094 
	C334.197449,150.162933 333.484711,149.013367 332.648285,147.962173 
	C332.368866,147.610992 331.787842,147.471069 331.320099,147.302948 
	C327.367493,145.882050 324.894409,143.578079 326.742859,139.033585 
	C328.165314,135.536407 333.981689,133.798401 337.559387,135.801346 
	C338.204895,136.162750 338.650940,137.257446 338.736542,138.061768 
	C338.772125,138.396545 337.648651,139.138412 337.005310,139.199234 
	C335.869568,139.306610 334.639038,138.765045 333.559021,139.001495 
	C332.620117,139.207062 331.535645,139.954803 331.104156,140.773285 
	C330.880920,141.196777 331.833130,142.388763 332.448639,143.053711 
	C332.864990,143.503479 333.600311,143.698837 334.226593,143.906647 
	C337.861572,145.112717 340.621948,147.045746 339.887756,151.431412 
	C339.180420,155.656204 336.161133,157.025314 331.831726,157.103241 
z"/>
<path fill="#303030" opacity="1.000000" stroke="none" 
	d="
M444.846741,149.890320 
	C444.032013,152.828400 447.203918,157.813660 440.331177,156.762878 
	C440.331177,151.190521 440.331177,145.618744 440.331177,139.868301 
	C438.953400,139.659149 437.932709,139.701508 437.102295,139.324600 
	C436.207977,138.918686 435.492004,138.119888 434.698212,137.492493 
	C435.584900,136.783112 436.428589,135.537506 437.366119,135.462341 
	C440.499847,135.211151 443.681030,135.212051 446.814301,135.473053 
	C447.969177,135.569260 449.041443,136.657318 450.151367,137.292969 
	C449.119598,137.990982 448.122345,138.750000 447.041504,139.361252 
	C446.502594,139.666016 445.810760,139.700348 444.847382,139.942734 
	C444.847382,143.147324 444.847382,146.280548 444.846741,149.890320 
z"/>
<path fill="#2E2E2E" opacity="1.000000" stroke="none" 
	d="
M351.710693,146.977554 
	C351.709869,149.462784 351.587708,151.470886 351.739288,153.458115 
	C351.990021,156.744583 350.565918,157.646393 347.139404,156.587982 
	C347.139404,151.086594 347.139404,145.490158 347.139404,140.239868 
	C345.168030,138.557938 340.338257,140.947525 342.115448,135.874420 
	C352.632629,134.174774 356.653076,135.000732 356.701721,139.096176 
	C355.291595,139.269379 353.854095,139.445938 351.712341,139.709000 
	C351.712341,141.978287 351.712341,144.234665 351.710693,146.977554 
z"/>
<path fill="#252525" opacity="1.000000" stroke="none" 
	d="
M249.632751,156.991089 
	C246.370331,157.005936 243.561142,157.005936 240.026337,157.005936 
	C240.026337,150.284348 239.957687,143.863770 240.123032,137.449219 
	C240.141373,136.737686 241.494278,136.060547 242.228241,135.367462 
	C242.941498,136.249313 244.232361,137.106400 244.271393,138.017151 
	C244.477448,142.823593 244.368011,147.643539 244.368011,153.089752 
	C246.363785,153.089752 248.163208,152.930649 249.910065,153.164413 
	C250.657532,153.264450 251.295486,154.182800 251.983215,154.729324 
	C251.350800,155.478302 250.718399,156.227280 249.632751,156.991089 
z"/>
<path fill="#161616" opacity="1.000000" stroke="none" 
	d="
M271.990997,139.404785 
	C271.646454,135.790558 272.831360,134.659119 276.260712,136.079239 
	C276.260712,142.125488 276.407837,148.241058 276.126617,154.336868 
	C276.075348,155.448837 274.277039,156.480225 273.285187,157.548813 
	C272.853668,157.265396 272.422180,156.981964 271.990662,156.698532 
	C271.990662,151.083527 271.990662,145.468506 271.990997,139.404785 
z"/>
<path fill="#E0ECE6" opacity="1.000000" stroke="none" 
	d="
M89.046883,119.937347 
	C81.027481,115.949104 80.508415,110.732986 87.996109,103.109627 
	C88.116325,104.695946 87.758217,106.351929 87.078209,107.863075 
	C85.870506,110.546883 84.977966,113.079742 88.228783,115.403450 
	C89.961967,115.782990 91.479027,115.932709 93.414520,116.025970 
	C96.606346,115.472870 99.460396,115.241837 102.137695,114.428780 
	C109.562378,112.174019 110.350830,109.589302 105.867050,103.172806 
	C103.094460,99.205101 101.194679,98.862129 98.058395,102.526779 
	C95.939880,105.002220 94.561920,108.111427 92.612549,110.766968 
	C92.146217,110.274780 91.920052,109.952774 91.760544,109.273941 
	C94.266174,104.487679 93.826836,98.041824 100.515701,96.509865 
	C100.760033,96.453903 100.639626,94.805351 100.689194,93.899002 
	C100.685013,93.713654 100.680832,93.528305 100.582428,92.884781 
	C100.488197,92.426620 100.273727,92.064964 100.273727,92.064964 
	C101.385422,83.803680 106.557327,81.034569 114.393150,84.436996 
	C115.255371,84.811386 116.300293,84.764969 117.696686,85.288612 
	C118.095757,86.126877 118.058617,86.590256 117.610435,87.031456 
	C113.477852,87.111008 109.756310,87.212730 105.724976,87.319168 
	C104.999733,87.889351 104.584297,88.454819 104.104614,89.376244 
	C104.450104,90.810295 104.859825,91.888382 105.264496,93.232956 
	C105.261269,93.677101 105.263100,93.854774 105.276749,94.361153 
	C108.384979,97.919884 111.484619,101.146820 114.576706,104.380974 
	C116.843369,106.751785 119.147705,106.453629 120.752449,103.891777 
	C122.350739,101.340233 123.378380,98.431229 124.656227,95.678955 
	C121.750732,94.470001 118.878792,93.167007 115.918701,92.111122 
	C115.063454,91.806046 113.954926,92.211082 112.695183,92.164200 
	C112.293015,91.696205 112.158180,91.354568 112.272690,90.977097 
	C112.683022,90.893402 112.844002,90.845551 113.252197,90.805717 
	C113.818161,90.634735 113.980423,90.362457 114.421059,89.943832 
	C116.892227,89.808380 118.928528,89.726013 121.247398,89.808754 
	C122.708649,90.294083 124.333977,90.234497 124.986626,91.002014 
	C127.459381,93.909996 128.680328,91.926941 130.052841,90.029121 
	C137.147415,86.490456 142.146637,88.204185 144.028122,95.881378 
	C145.395081,101.459160 145.165283,107.428268 145.708420,113.956062 
	C148.722198,114.693932 152.599136,116.598724 152.735733,121.869583 
	C152.839905,125.889374 148.859421,130.728043 144.396210,131.728973 
	C145.181900,129.967087 146.436462,128.650314 147.399414,127.146797 
	C150.975876,121.562721 149.614090,118.873100 142.565887,118.132431 
	C137.813065,119.021065 133.459641,119.941887 129.152603,121.043999 
	C128.295044,121.263435 126.866638,122.484261 126.965096,122.723656 
	C128.489746,126.431000 129.353180,131.158035 132.163483,133.369354 
	C134.747070,135.402283 137.595184,131.934265 139.356445,128.883942 
	C141.686630,132.560776 139.820816,134.648972 136.674637,136.215469 
	C134.947235,137.075562 132.791809,137.757263 134.732513,140.350143 
	C134.736542,149.048294 130.790665,152.290131 122.210655,150.468079 
	C119.982880,149.994980 117.849770,149.076111 115.538422,147.812195 
	C118.779854,147.481293 122.175140,148.024780 125.526878,147.827713 
	C128.874725,147.630875 131.698166,146.338348 130.340897,142.505920 
	C123.618103,143.091965 117.291016,143.643509 110.963921,144.195038 
	C109.970734,143.511948 108.977539,142.828873 107.910103,142.094727 
	C97.442818,147.776047 93.887085,146.619614 90.751511,135.605682 
	C91.227142,134.267609 91.546341,133.641006 92.022583,133.335922 
	C96.255028,143.412018 98.012642,144.056351 104.235367,137.760742 
	C105.628624,134.604660 107.036346,131.733536 107.779587,128.699631 
	C109.431183,121.957794 107.750580,120.011292 100.880974,120.095230 
	C95.207748,120.164551 93.531303,122.751526 95.657944,128.188599 
	C96.559441,130.493423 97.502884,132.781845 98.058411,135.063385 
	C96.116180,133.038864 94.542801,131.028671 92.911644,128.683289 
	C92.233444,127.219261 91.613022,126.090416 90.989334,124.985397 
	C90.986069,125.009216 91.034134,125.010063 91.115356,124.651207 
	C91.487732,122.343262 93.295769,119.645409 89.046883,119.937347 
M130.004333,97.680138 
	C129.204758,100.193794 128.254379,102.670937 127.634979,105.228233 
	C126.032562,111.844093 128.192337,114.318306 135.025497,113.907158 
	C139.666687,113.627899 141.430161,111.507317 139.879410,107.081429 
	C138.758484,103.882278 136.676468,101.019875 135.749054,97.996559 
	C138.107971,100.094711 140.466888,102.192863 142.699570,104.178734 
	C143.234253,99.397415 140.832245,93.036484 137.664566,92.122108 
	C133.515976,90.924576 131.851425,93.913017 130.004333,97.680138 
M111.835403,139.913284 
	C117.546669,143.076904 123.248009,141.534500 130.861511,139.954056 
	C126.007545,134.991348 122.117523,131.014191 118.343857,127.155991 
	C111.718727,131.537506 109.887650,134.947449 111.835403,139.913284 
M120.817223,118.340034 
	C121.309082,115.084267 120.065613,112.989143 116.679550,113.933014 
	C115.643356,114.221855 114.316818,117.303795 114.784485,118.393990 
	C115.931976,121.068893 118.281113,120.774307 120.817223,118.340034 
z"/>
<path fill="#1FD38E" opacity="1.000000" stroke="none" 
	d="
M142.981552,118.228302 
	C149.614090,118.873100 150.975876,121.562721 147.399414,127.146797 
	C146.436462,128.650314 145.181900,129.967087 144.018646,131.719498 
	C143.539993,137.474258 138.376144,137.474762 134.966095,140.048615 
	C132.791809,137.757263 134.947235,137.075562 136.674637,136.215469 
	C139.820816,134.648972 141.686630,132.560776 139.406372,128.539703 
	C140.276779,124.841812 144.849548,122.797356 142.981552,118.228302 
z"/>
<path fill="#1FD38E" opacity="1.000000" stroke="none" 
	d="
M88.012650,115.173630 
	C84.977966,113.079742 85.870506,110.546883 87.078209,107.863075 
	C87.758217,106.351929 88.116325,104.695946 88.293747,102.917847 
	C90.177017,97.403847 95.667862,96.617889 100.298393,93.999969 
	C100.639626,94.805351 100.760033,96.453903 100.515701,96.509865 
	C93.826836,98.041824 94.266174,104.487679 91.533722,109.575867 
	C90.164375,111.880951 89.088516,113.527290 88.012650,115.173630 
z"/>
<path fill="#23D38F" opacity="1.000000" stroke="none" 
	d="
M110.971939,144.485779 
	C117.291016,143.643509 123.618103,143.091965 130.340897,142.505920 
	C131.698166,146.338348 128.874725,147.630875 125.526878,147.827713 
	C122.175140,148.024780 118.779854,147.481293 115.227585,147.620834 
	C113.694321,146.911682 112.337135,145.844101 110.971939,144.485779 
z"/>
<path fill="#25D490" opacity="1.000000" stroke="none" 
	d="
M118.021484,87.053627 
	C118.058617,86.590256 118.095757,86.126877 118.102371,85.316002 
	C119.941643,85.758881 121.825035,86.518875 123.677429,87.348106 
	C125.561485,88.191505 127.415009,89.103111 129.667374,90.006989 
	C128.680328,91.926941 127.459381,93.909996 124.986626,91.002014 
	C124.333977,90.234497 122.708649,90.294083 121.232582,89.533012 
	C119.963959,88.412651 118.992722,87.733139 118.021484,87.053627 
z"/>
<path fill="#D0EBDF" opacity="1.000000" stroke="none" 
	d="
M91.865532,133.014404 
	C91.546341,133.641006 91.227142,134.267609 90.835617,135.253845 
	C90.290184,132.446060 89.817078,129.278641 89.630989,125.662628 
	C90.290054,125.146042 90.662094,125.078049 91.034134,125.010056 
	C91.034134,125.010063 90.986069,125.009216 90.914238,125.395401 
	C90.949905,126.880241 91.057411,127.978912 91.199173,129.411331 
	C91.444130,130.834854 91.654831,131.924637 91.865532,133.014404 
z"/>
<path fill="#5ADAA9" opacity="1.000000" stroke="none" 
	d="
M91.115356,124.651199 
	C90.662094,125.078049 90.290054,125.146042 89.638718,125.260414 
	C89.265869,123.816200 89.172325,122.325600 89.062828,120.386169 
	C93.295769,119.645409 91.487732,122.343262 91.115356,124.651199 
z"/>
<path fill="#1FD38E" opacity="1.000000" stroke="none" 
	d="
M100.000946,92.064583 
	C100.273727,92.064964 100.488197,92.426620 100.461792,92.634209 
	C99.953506,92.713799 99.471626,92.585793 98.989738,92.457794 
	C99.235878,92.326599 99.482025,92.195404 100.000946,92.064583 
z"/>
<path fill="#DEDEDE" opacity="1.000000" stroke="none" 
	d="
M395.864777,108.432190 
	C398.697754,108.253586 401.151031,108.253586 404.311432,108.253586 
	C402.031738,103.744385 400.125519,99.973938 397.798492,95.371170 
	C394.294952,102.459213 391.193634,108.733490 388.023682,115.146652 
	C396.653015,117.247505 405.474182,113.507164 413.285828,117.300865 
	C413.232758,117.835632 413.179688,118.370399 413.126617,118.905167 
	C402.936646,118.905167 392.746643,118.905167 381.948181,118.905167 
	C387.170959,108.477127 392.270020,98.296120 397.814056,87.226662 
	C402.092712,95.722572 405.995209,103.471611 410.142242,111.706161 
	C404.491821,111.706161 399.571289,111.706161 394.204193,111.706161 
	C394.676971,110.563629 395.081024,109.587219 395.864777,108.432190 
z"/>
<path fill="#E9E9E9" opacity="1.000000" stroke="none" 
	d="
M432.946747,93.014069 
	C432.946930,90.394272 432.946930,88.253151 432.946930,86.123360 
	C437.985779,86.080040 440.078064,88.326828 440.064667,93.428917 
	C440.051025,98.642570 438.138062,100.750893 432.946564,100.906776 
	C432.946564,98.430389 432.946564,95.961563 432.946747,93.014069 
z"/>
<path fill="#DEDEDE" opacity="1.000000" stroke="none" 
	d="
M384.272156,151.207138 
	C384.264252,147.012543 384.264252,143.241623 384.264252,139.423218 
	C389.259247,138.484528 391.654236,140.421814 392.178131,144.869843 
	C392.778259,149.964920 390.915161,153.156754 386.996307,153.362717 
	C386.123657,153.408585 385.187164,152.240173 384.272156,151.207138 
z"/>
<path fill="#D9D9D9" opacity="1.000000" stroke="none" 
	d="
M259.393311,145.616150 
	C259.173553,143.297150 259.173553,141.365692 259.173553,139.434235 
	C259.584961,139.090240 259.996338,138.746246 260.407745,138.402252 
	C261.705109,139.703247 263.869965,140.859161 264.116913,142.335831 
	C264.611053,145.290207 262.863464,146.910126 259.393311,145.616150 
z"/>
<path fill="#10D184" opacity="1.000000" stroke="none" 
	d="
M117.610435,87.031456 
	C118.992722,87.733139 119.963959,88.412651 120.950012,89.367897 
	C118.928528,89.726013 116.892227,89.808380 114.219254,90.024643 
	C113.331894,90.319031 113.139366,90.532082 113.004990,90.797691 
	C112.844002,90.845551 112.683022,90.893402 111.991852,90.852005 
	C110.860245,90.690506 110.258842,90.618263 109.657433,90.546021 
	C109.742760,91.114761 109.747444,92.144302 109.926819,92.175697 
	C110.915154,92.348648 111.946144,92.277802 112.962509,92.290573 
	C113.954926,92.211082 115.063454,91.806046 115.918701,92.111122 
	C118.878792,93.167007 121.750732,94.470001 124.656227,95.678955 
	C123.378380,98.431229 122.350739,101.340233 120.752449,103.891777 
	C119.147705,106.453629 116.843369,106.751785 114.576706,104.380974 
	C111.484619,101.146820 108.384979,97.919884 105.504265,94.338875 
	C105.951302,93.824203 106.182655,93.660507 106.414001,93.496819 
	C106.032516,93.320038 105.651031,93.143257 105.269547,92.966476 
	C104.859825,91.888382 104.450104,90.810295 104.381660,89.326385 
	C105.160217,88.385201 105.597496,87.849831 106.034775,87.314468 
	C109.756310,87.212730 113.477852,87.111008 117.610435,87.031456 
M107.480461,91.610970 
	C107.480461,91.610970 107.398857,91.482040 107.480461,91.610970 
z"/>
<path fill="#10D184" opacity="1.000000" stroke="none" 
	d="
M92.852707,110.937149 
	C94.561920,108.111427 95.939880,105.002220 98.058395,102.526779 
	C101.194679,98.862129 103.094460,99.205101 105.867050,103.172806 
	C110.350830,109.589302 109.562378,112.174019 102.137695,114.428780 
	C99.460396,115.241837 96.606346,115.472870 93.151390,115.797607 
	C92.597450,114.062843 92.725075,112.500000 92.852707,110.937149 
z"/>
<path fill="#10D184" opacity="1.000000" stroke="none" 
	d="
M111.553223,139.660599 
	C109.887650,134.947449 111.718727,131.537506 118.343857,127.155991 
	C122.117523,131.014191 126.007545,134.991348 130.861511,139.954056 
	C123.248009,141.534500 117.546669,143.076904 111.553223,139.660599 
z"/>
<path fill="#10D184" opacity="1.000000" stroke="none" 
	d="
M98.427261,135.077713 
	C97.502884,132.781845 96.559441,130.493423 95.657944,128.188599 
	C93.531303,122.751526 95.207748,120.164551 100.880974,120.095230 
	C107.750580,120.011292 109.431183,121.957794 107.779587,128.699631 
	C107.036346,131.733536 105.628624,134.604660 103.945541,137.610291 
	C101.721535,136.806519 100.074402,135.942123 98.427261,135.077713 
z"/>
<path fill="#0FD184" opacity="1.000000" stroke="none" 
	d="
M142.565887,118.132431 
	C144.849548,122.797356 140.276779,124.841812 139.020691,128.550110 
	C137.595184,131.934265 134.747070,135.402283 132.163483,133.369354 
	C129.353180,131.158035 128.489746,126.431000 126.965096,122.723656 
	C126.866638,122.484261 128.295044,121.263435 129.152603,121.043999 
	C133.459641,119.941887 137.813065,119.021065 142.565887,118.132431 
z"/>
<path fill="#0ED183" opacity="1.000000" stroke="none" 
	d="
M135.023071,98.007294 
	C136.676468,101.019875 138.758484,103.882278 139.879410,107.081429 
	C141.430161,111.507317 139.666687,113.627899 135.025497,113.907158 
	C128.192337,114.318306 126.032562,111.844093 127.634979,105.228233 
	C128.254379,102.670937 129.204758,100.193794 130.558685,97.359421 
	C132.416382,97.361565 133.719727,97.684433 135.023071,98.007294 
z"/>
<path fill="#1BD38B" opacity="1.000000" stroke="none" 
	d="
M98.058411,135.063385 
	C100.074402,135.942123 101.721535,136.806519 103.658508,137.821381 
	C98.012642,144.056351 96.255028,143.412018 92.022583,133.335922 
	C91.654831,131.924637 91.444130,130.834854 91.498566,129.376251 
	C92.165611,129.011108 92.567513,129.014801 92.969421,129.018494 
	C94.542801,131.028671 96.116180,133.038864 98.058411,135.063385 
z"/>
<path fill="#17D187" opacity="1.000000" stroke="none" 
	d="
M135.386063,98.001923 
	C133.719727,97.684433 132.416382,97.361565 130.777054,97.034424 
	C131.851425,93.913017 133.515976,90.924576 137.664566,92.122108 
	C140.832245,93.036484 143.234253,99.397415 142.699570,104.178734 
	C140.466888,102.192863 138.107971,100.094711 135.386063,98.001923 
z"/>
<path fill="#23D38F" opacity="1.000000" stroke="none" 
	d="
M120.604401,118.673477 
	C118.281113,120.774307 115.931976,121.068893 114.784485,118.393990 
	C114.316818,117.303795 115.643356,114.221855 116.679550,113.933014 
	C120.065613,112.989143 121.309082,115.084267 120.604401,118.673477 
z"/>
<path fill="#BDE8D6" opacity="1.000000" stroke="none" 
	d="
M92.612549,110.766968 
	C92.725075,112.500000 92.597450,114.062843 92.732956,115.854065 
	C91.479027,115.932709 89.961967,115.782990 88.228790,115.403450 
	C89.088516,113.527290 90.164375,111.880951 91.467064,109.932686 
	C91.920052,109.952774 92.146217,110.274780 92.612549,110.766968 
z"/>
<path fill="#25D490" opacity="1.000000" stroke="none" 
	d="
M112.695183,92.164207 
	C111.946144,92.277802 110.915154,92.348648 109.926819,92.175697 
	C109.747444,92.144302 109.742760,91.114761 109.657433,90.546021 
	C110.258842,90.618263 110.860245,90.690506 111.742493,90.887848 
	C112.158180,91.354568 112.293015,91.696205 112.695183,92.164207 
z"/>
<path fill="#5ADAA9" opacity="1.000000" stroke="none" 
	d="
M92.911644,128.683289 
	C92.567513,129.014801 92.165611,129.011108 91.464310,129.042511 
	C91.057411,127.978912 90.949905,126.880241 90.917503,125.371582 
	C91.613022,126.090416 92.233444,127.219261 92.911644,128.683289 
z"/>
<path fill="#25D490" opacity="1.000000" stroke="none" 
	d="
M105.724976,87.319176 
	C105.597496,87.849831 105.160217,88.385201 104.445892,88.970428 
	C104.584297,88.454819 104.999733,87.889351 105.724976,87.319176 
z"/>
<path fill="#25D490" opacity="1.000000" stroke="none" 
	d="
M105.264496,93.232956 
	C105.651031,93.143257 106.032516,93.320038 106.414001,93.496819 
	C106.182655,93.660507 105.951302,93.824203 105.492447,94.010170 
	C105.263100,93.854774 105.261269,93.677101 105.264496,93.232956 
z"/>
<path fill="#25D490" opacity="1.000000" stroke="none" 
	d="
M113.252197,90.805717 
	C113.139366,90.532082 113.331894,90.319031 113.784386,90.077728 
	C113.980423,90.362457 113.818161,90.634735 113.252197,90.805717 
z"/>
<path fill="#25D490" opacity="1.000000" stroke="none" 
	d="
M107.439659,91.546509 
	C107.398857,91.482040 107.480461,91.610970 107.439659,91.546509 
z"/>
</svg>