<?xml version="1.0" standalone="no"?>
<!DOCTYPE svg PUBLIC "-//W3C//DTD SVG 20010904//EN"
 "http://www.w3.org/TR/2001/REC-SVG-20010904/DTD/svg10.dtd">
<svg version="1.0" xmlns="http://www.w3.org/2000/svg"
 width="612.000000pt" height="612.000000pt" viewBox="0 0 612.000000 612.000000"
 preserveAspectRatio="xMidYMid meet">

<g transform="translate(0.000000,612.000000) scale(0.100000,-0.100000)"
fill="#000000" stroke="none">
<path d="M2807 4145 c-280 -53 -513 -244 -625 -512 -94 -223 -70 -516 58 -735
51 -87 200 -238 282 -287 218 -128 468 -154 709 -75 45 15 88 24 101 20 15 -4
85 -92 213 -268 211 -291 242 -328 277 -328 30 0 155 93 170 126 16 34 20 28
-211 343 -106 144 -196 273 -201 287 -11 29 -5 45 51 119 51 69 105 180 131
272 32 112 32 324 0 436 -102 355 -408 598 -772 612 -68 3 -133 -1 -183 -10z
m368 -159 c108 -37 210 -102 286 -184 128 -137 180 -261 187 -447 5 -146 -11
-222 -70 -345 -33 -69 -57 -101 -132 -175 -144 -144 -289 -205 -487 -205 -333
0 -614 226 -685 554 -54 253 55 544 262 697 73 53 185 106 265 124 103 23 275
15 374 -19z"/>
</g>
</svg>
